<svg xmlns="http://www.w3.org/2000/svg" viewBox="0 0 800 500" role="img" aria-label="React design patterns">
  <defs>
    <linearGradient id="bg" x1="0%" y1="0%" x2="100%" y2="100%">
      <stop offset="0%" stop-color="#ecfeff"/>
      <stop offset="100%" stop-color="#0891b2"/>
    </linearGradient>
  </defs>
  <rect width="800" height="500" fill="url(#bg)"/>
  <rect x="100" y="90" width="220" height="140" rx="14" fill="#0f172a" opacity="0.88"/>
  <rect x="340" y="90" width="360" height="60" rx="12" fill="#0f172a" opacity="0.75"/>
  <rect x="340" y="170" width="280" height="60" rx="12" fill="#0f172a" opacity="0.6"/>
  <rect x="100" y="260" width="600" height="150" rx="16" fill="#0f172a" opacity="0.9"/>
  <circle cx="170" cy="160" r="28" fill="#22d3ee"/>
  <circle cx="230" cy="160" r="18" fill="#67e8f9" opacity="0.8"/>
  <rect x="370" y="112" width="180" height="10" rx="5" fill="#22d3ee"/>
  <rect x="370" y="132" width="120" height="8" rx="4" fill="#67e8f9" opacity="0.7"/>
  <rect x="370" y="192" width="200" height="8" rx="4" fill="#67e8f9" opacity="0.5"/>
  <rect x="140" y="300" width="520" height="10" rx="5" fill="#22d3ee"/>
  <rect x="140" y="330" width="420" height="8" rx="4" fill="#67e8f9" opacity="0.7"/>
  <rect x="140" y="355" width="360" height="8" rx="4" fill="#67e8f9" opacity="0.5"/>
  <text x="140" y="385" fill="#a5f3fc" font-family="monospace" font-size="22" font-weight="700">useState ’ useReducer ’ Context</text>
</svg>
